<?xml version="1.0" encoding="UTF-8"?><svg id="Layer_2" xmlns="http://www.w3.org/2000/svg" viewBox="0 0 179.94 240.2"><defs><style>.cls-1{fill:#212121;}</style></defs><g id="Layer_1-2"><path class="cls-1" d="M156.49,83.7l-28.31,28.31c10.84,10.84,14.15,26.33,9.97,40.03-20.8-25.6-47.63-46.12-78.31-59.37v-12.61c0-22.11,17.92-40.03,40.03-40.03,11.06,0,21.06,4.48,28.31,11.73l28.31-28.31C142,8.96,121.98,0,99.87,0,55.65,0,19.81,35.85,19.81,80.07v27.36c-27.56,31.45-26.36,79.32,3.64,109.32,29.65,29.65,76.76,31.16,108.22,4.58,2.41,6.12,4.48,12.42,6.15,18.87h42.14c-3.6-17.65-9.49-34.48-17.32-50.17,24.96-31.43,22.93-77.26-6.14-106.33Zm-48.12,104.74c-15.63,15.63-40.98,15.63-56.62,0-15.12-15.12-15.61-39.31-1.5-55.03,24.52,11.91,45.65,29.74,61.52,51.62l-3.41,3.41h0Z"/></g></svg>