<?xml version="1.0" encoding="UTF-8"?><svg id="Layer_2" xmlns="http://www.w3.org/2000/svg" viewBox="0 0 738.43 274.2"><defs><style>.cls-1{fill:#f43210;}</style></defs><g id="Layer_1-2"><g><path class="cls-1" d="M156.49,83.7l-28.31,28.31c10.84,10.84,14.15,26.33,9.97,40.03-20.8-25.6-47.63-46.12-78.31-59.37v-12.61c0-22.11,17.92-40.03,40.03-40.03,11.06,0,21.06,4.48,28.31,11.73l28.31-28.31C142,8.96,121.98,0,99.87,0,55.65,0,19.81,35.85,19.81,80.07v27.36c-27.56,31.45-26.36,79.32,3.64,109.32,29.65,29.65,76.76,31.16,108.22,4.58,2.41,6.12,4.48,12.42,6.15,18.87h42.14c-3.6-17.65-9.49-34.48-17.32-50.17,24.96-31.43,22.93-77.26-6.14-106.33Zm-48.12,104.74c-15.63,15.63-40.98,15.63-56.62,0-15.12-15.12-15.61-39.31-1.5-55.03,24.52,11.91,45.65,29.74,61.52,51.62l-3.41,3.41h0Z"/><path class="cls-1" d="M267.25,51.22c2.63-1.46,4.9-3.16,6.77-5.14,4.37-4.62,6.55-10.42,6.55-17.39,0-5.2-1.27-9.98-3.82-14.35-2.55-4.37-6.32-7.85-11.31-10.45-4.99-2.6-11.02-3.9-18.09-3.9h-47.41V110.1h47.1c7.8,0,14.48-1.43,20.04-4.29,5.56-2.86,9.83-6.68,12.79-11.46,2.96-4.78,4.45-10.19,4.45-16.22,0-7.9-2.5-14.55-7.49-19.96-2.6-2.81-5.8-5.12-9.58-6.95Zm-24.58-32.04c3.95,0,7.17,1.01,9.67,3.04,2.5,2.03,3.74,5.02,3.74,8.97,0,4.16-1.25,7.23-3.74,9.2-2.49,1.98-5.72,2.96-9.67,2.96h-18.4V19.18h18.4Zm13.1,67.6c-2.7,2.76-6.39,4.13-11.07,4.13h-20.43v-28.85h20.43c3.12,0,5.79,.62,8.03,1.87,2.23,1.25,3.98,2.96,5.22,5.15,1.25,2.18,1.87,4.63,1.87,7.33,0,4.16-1.35,7.62-4.05,10.37Z"/><path class="cls-1" d="M431.76,34.39c-2.76-1.09-5.95-1.64-9.59-1.64-8.22,0-14.69,2.44-19.42,7.33-.03,.03-.05,.06-.08,.09v-5.86h-24.02V110.1h24.02v-41.48c0-4.89,1.17-8.55,3.51-10.99,2.34-2.44,5.54-3.66,9.59-3.66,1.97,0,3.74,.31,5.3,.94,1.56,.62,2.81,1.46,3.74,2.49l14.19-18.09c-2.08-2.18-4.5-3.82-7.25-4.91Z"/><path class="cls-1" d="M492.34,39.36c-1.74-1.45-3.68-2.71-5.85-3.72-4.11-1.92-8.76-2.89-13.96-2.89-6.86,0-13.02,1.64-18.48,4.91-5.46,3.27-9.75,7.72-12.87,13.33-3.12,5.61-4.68,12.01-4.68,19.18s1.56,13.31,4.68,19.03c3.12,5.72,7.38,10.24,12.79,13.57,5.4,3.33,11.59,4.99,18.56,4.99,5.2,0,9.85-.99,13.96-2.96,1.98-.95,3.76-2.09,5.38-3.39v4.64c0,5.4-1.69,9.56-5.07,12.48-3.38,2.91-8.03,4.37-13.96,4.37-4.58,0-8.55-.83-11.93-2.49-3.38-1.66-6.42-4.11-9.12-7.33l-14.82,14.66c3.64,5.2,8.6,9.22,14.89,12.08,6.29,2.86,13.54,4.29,21.76,4.29s15.36-1.59,21.75-4.76c6.39-3.17,11.41-7.67,15.05-13.49,3.64-5.82,5.46-12.63,5.46-20.43V34.31h-23.55v5.05Zm-6.63,45.01c-2.44,1.46-5.33,2.18-8.65,2.18s-6.03-.73-8.42-2.18c-2.39-1.46-4.29-3.46-5.69-6-1.4-2.55-2.1-5.28-2.1-8.19s.67-5.77,2.03-8.27,3.28-4.47,5.77-5.93c2.5-1.46,5.35-2.18,8.58-2.18s6.18,.73,8.58,2.18c2.39,1.46,4.24,3.43,5.54,5.93,1.3,2.49,1.95,5.2,1.95,8.11,0,3.22-.65,6.06-1.95,8.5-1.3,2.44-3.17,4.39-5.62,5.85Z"/><path class="cls-1" d="M586.69,37.43c-5.72-3.22-12.37-4.84-19.96-4.84s-14.61,1.72-20.74,5.15-10.97,8.14-14.5,14.11c-3.54,5.98-5.3,12.71-5.3,20.2s1.82,14.56,5.46,20.59c3.64,6.03,8.63,10.74,14.97,14.11,6.34,3.38,13.62,5.07,21.83,5.07,6.45,0,12.32-1.07,17.62-3.2,5.3-2.13,9.82-5.43,13.57-9.9l-13.26-13.1c-2.29,2.6-4.94,4.55-7.95,5.85-3.02,1.3-6.34,1.95-9.98,1.95-4.05,0-7.56-.86-10.53-2.57-2.96-1.72-5.25-4.18-6.86-7.41-.5-1-.89-2.07-1.24-3.17l54.18-.26c.52-1.87,.86-3.56,1.02-5.07,.15-1.51,.23-2.99,.23-4.45,0-7.38-1.66-13.93-4.99-19.65-3.33-5.72-7.85-10.19-13.57-13.41Zm-29.4,16.06c2.75-1.77,6-2.65,9.75-2.65,3.43,0,6.37,.78,8.81,2.34,2.44,1.56,4.29,3.77,5.54,6.63,.49,1.12,.87,2.39,1.18,3.73l-32.77,.19c.31-1.01,.67-1.99,1.11-2.9,1.51-3.12,3.64-5.56,6.39-7.33Z"/><path class="cls-1" d="M668.02,34.39c-2.76-1.09-5.95-1.64-9.59-1.64-8.22,0-14.69,2.44-19.42,7.33-.03,.03-.05,.06-.08,.09v-5.86h-24.02V110.1h24.02v-41.48c0-4.89,1.17-8.55,3.51-10.99,2.34-2.44,5.54-3.66,9.59-3.66,1.97,0,3.74,.31,5.3,.94,1.56,.62,2.81,1.46,3.74,2.49l14.19-18.09c-2.08-2.18-4.5-3.82-7.25-4.91Z"/><path class="cls-1" d="M727.36,69.01c-2.81-1.82-5.77-3.22-8.89-4.21-3.12-.99-6.06-1.84-8.81-2.57-2.76-.73-5.04-1.56-6.86-2.49-1.82-.94-2.73-2.18-2.73-3.74,0-1.35,.67-2.44,2.03-3.28,1.35-.83,3.38-1.25,6.08-1.25s5.69,.6,8.66,1.79c2.96,1.2,5.64,3.2,8.03,6l13.57-13.88c-3.33-4.37-7.75-7.67-13.26-9.9-5.51-2.23-11.44-3.35-17.78-3.35s-11.8,1.04-16.38,3.12c-4.58,2.08-8.11,4.91-10.6,8.5-2.5,3.59-3.74,7.83-3.74,12.71s.88,8.47,2.65,11.38c1.77,2.91,4.05,5.2,6.86,6.86,2.81,1.66,5.77,2.99,8.89,3.98,3.12,.99,6.11,1.87,8.97,2.65,2.86,.78,5.17,1.61,6.94,2.5,1.77,.88,2.65,2.26,2.65,4.13,0,1.56-.76,2.76-2.26,3.59-1.51,.83-3.56,1.25-6.16,1.25-4.16,0-7.93-.75-11.31-2.26-3.38-1.51-6.37-3.61-8.97-6.32l-13.72,13.72c2.7,2.81,5.87,5.28,9.51,7.41,3.64,2.13,7.64,3.8,12.01,4.99,4.37,1.19,8.78,1.79,13.26,1.79,9.46,0,16.97-2.21,22.54-6.63,5.56-4.42,8.34-10.32,8.34-17.7,0-4.78-.88-8.66-2.65-11.62-1.77-2.96-4.05-5.35-6.86-7.17Z"/><path class="cls-1" d="M267.25,181.32c2.63-1.46,4.9-3.16,6.77-5.14,4.37-4.62,6.55-10.42,6.55-17.39,0-5.2-1.27-9.98-3.82-14.35-2.55-4.37-6.32-7.85-11.31-10.45-4.99-2.6-11.02-3.9-18.09-3.9h-47.41v110.1h47.1c7.8,0,14.48-1.43,20.04-4.29,5.56-2.86,9.83-6.68,12.79-11.46,2.96-4.78,4.45-10.19,4.45-16.22,0-7.9-2.5-14.55-7.49-19.96-2.6-2.81-5.8-5.12-9.58-6.95Zm-24.58-32.04c3.95,0,7.17,1.01,9.67,3.04,2.5,2.03,3.74,5.02,3.74,8.97,0,4.16-1.25,7.23-3.74,9.2-2.49,1.98-5.72,2.96-9.67,2.96h-18.4v-24.17h18.4Zm13.1,67.6c-2.7,2.76-6.39,4.13-11.07,4.13h-20.43v-28.85h20.43c3.12,0,5.79,.62,8.03,1.87,2.23,1.25,3.98,2.96,5.22,5.15,1.25,2.18,1.87,4.63,1.87,7.33,0,4.16-1.35,7.62-4.05,10.37Z"/><path class="cls-1" d="M341.31,207c0,3.87-1.02,6.92-3.04,9.16-2.03,2.24-4.81,3.36-8.34,3.36-2.39,0-4.47-.51-6.24-1.53-1.77-1.02-3.12-2.47-4.05-4.35-.94-1.88-1.4-4.1-1.4-6.64v-42.59h-24.02v42.9c0,6.41,1.51,12.09,4.52,17.02,3.01,4.94,7.25,8.83,12.71,11.68,5.46,2.85,11.62,4.27,18.48,4.27s13.25-1.4,18.56-4.2c5.3-2.8,9.44-6.66,12.4-11.6,2.96-4.94,4.44-10.66,4.44-17.17v-42.9h-24.02v42.59Z"/><path class="cls-1" d="M318.23,67.55c0-3.87,1.02-6.92,3.04-9.16,2.03-2.24,4.81-3.36,8.34-3.36,2.39,0,4.47,.51,6.24,1.53,1.77,1.02,3.12,2.47,4.05,4.35,.94,1.88,1.4,4.1,1.4,6.64v42.59h24.02v-42.9c0-6.41-1.51-12.09-4.52-17.02-3.01-4.94-7.25-8.83-12.71-11.68-5.46-2.85-11.62-4.27-18.48-4.27s-13.25,1.4-18.56,4.2c-5.3,2.8-9.44,6.66-12.4,11.6-2.96,4.94-4.44,10.66-4.44,17.17v42.9h24.02v-42.59Z"/><path class="cls-1" d="M431.76,164.49c-2.76-1.09-5.95-1.64-9.59-1.64-8.22,0-14.69,2.44-19.42,7.33-.03,.03-.05,.06-.08,.09v-5.86h-24.02v75.79h24.02v-41.48c0-4.89,1.17-8.55,3.51-10.99,2.34-2.44,5.54-3.66,9.59-3.66,1.97,0,3.74,.31,5.3,.94,1.56,.62,2.81,1.46,3.74,2.49l14.19-18.09c-2.08-2.18-4.5-3.82-7.25-4.91Z"/><path class="cls-1" d="M492.34,169.46c-1.74-1.45-3.68-2.71-5.85-3.72-4.11-1.92-8.76-2.89-13.96-2.89-6.86,0-13.02,1.64-18.48,4.91-5.46,3.27-9.75,7.72-12.87,13.33-3.12,5.61-4.68,12.01-4.68,19.18s1.56,13.31,4.68,19.03c3.12,5.72,7.38,10.24,12.79,13.57,5.4,3.33,11.59,4.99,18.56,4.99,5.2,0,9.85-.99,13.96-2.96,1.98-.95,3.76-2.09,5.38-3.39v4.64c0,5.4-1.69,9.56-5.07,12.48-3.38,2.91-8.03,4.37-13.96,4.37-4.58,0-8.55-.83-11.93-2.49-3.38-1.66-6.42-4.11-9.12-7.33l-14.82,14.66c3.64,5.2,8.6,9.22,14.89,12.08,6.29,2.86,13.54,4.29,21.76,4.29s15.36-1.59,21.75-4.76c6.39-3.17,11.41-7.67,15.05-13.49,3.64-5.82,5.46-12.63,5.46-20.43v-71.11h-23.55v5.05Zm-6.63,45.01c-2.44,1.46-5.33,2.18-8.65,2.18s-6.03-.73-8.42-2.18c-2.39-1.46-4.29-3.46-5.69-6-1.4-2.55-2.1-5.28-2.1-8.19s.67-5.77,2.03-8.27c1.35-2.49,3.28-4.47,5.77-5.93,2.5-1.46,5.35-2.18,8.58-2.18s6.18,.73,8.58,2.18c2.39,1.46,4.24,3.43,5.54,5.93,1.3,2.49,1.95,5.2,1.95,8.11,0,3.22-.65,6.06-1.95,8.5-1.3,2.44-3.17,4.39-5.62,5.85Z"/><path class="cls-1" d="M586.69,167.53c-5.72-3.22-12.37-4.84-19.96-4.84s-14.61,1.72-20.74,5.15c-6.13,3.43-10.97,8.14-14.5,14.11-3.54,5.98-5.3,12.71-5.3,20.2s1.82,14.56,5.46,20.59c3.64,6.03,8.63,10.74,14.97,14.11,6.34,3.38,13.62,5.07,21.83,5.07,6.45,0,12.32-1.07,17.62-3.2,5.3-2.13,9.82-5.43,13.57-9.9l-13.26-13.1c-2.29,2.6-4.94,4.55-7.95,5.85-3.02,1.3-6.34,1.95-9.98,1.95-4.05,0-7.56-.86-10.53-2.57-2.96-1.72-5.25-4.18-6.86-7.41-.5-1-.89-2.07-1.24-3.17l54.18-.26c.52-1.87,.86-3.56,1.02-5.07,.15-1.51,.23-2.99,.23-4.45,0-7.38-1.66-13.93-4.99-19.65-3.33-5.72-7.85-10.19-13.57-13.41Zm-29.4,16.06c2.75-1.77,6-2.65,9.75-2.65,3.43,0,6.37,.78,8.81,2.34,2.44,1.56,4.29,3.77,5.54,6.63,.49,1.12,.87,2.39,1.18,3.73l-32.77,.19c.31-1.01,.67-1.99,1.11-2.9,1.51-3.12,3.64-5.56,6.39-7.33Z"/><path class="cls-1" d="M668.02,164.49c-2.76-1.09-5.95-1.64-9.59-1.64-8.22,0-14.69,2.44-19.42,7.33-.03,.03-.05,.06-.08,.09v-5.86h-24.02v75.79h24.02v-41.48c0-4.89,1.17-8.55,3.51-10.99,2.34-2.44,5.54-3.66,9.59-3.66,1.97,0,3.74,.31,5.3,.94,1.56,.62,2.81,1.46,3.74,2.49l14.19-18.09c-2.08-2.18-4.5-3.82-7.25-4.91Z"/><path class="cls-1" d="M727.36,199.11c-2.81-1.82-5.77-3.22-8.89-4.21-3.12-.99-6.06-1.84-8.81-2.57-2.76-.73-5.04-1.56-6.86-2.49-1.82-.94-2.73-2.18-2.73-3.74,0-1.35,.67-2.44,2.03-3.28,1.35-.83,3.38-1.25,6.08-1.25s5.69,.6,8.66,1.79c2.96,1.2,5.64,3.2,8.03,6l13.57-13.88c-3.33-4.37-7.75-7.67-13.26-9.9-5.51-2.23-11.44-3.35-17.78-3.35s-11.8,1.04-16.38,3.12c-4.58,2.08-8.11,4.91-10.6,8.5-2.5,3.59-3.74,7.83-3.74,12.71s.88,8.47,2.65,11.38c1.77,2.91,4.05,5.2,6.86,6.86,2.81,1.66,5.77,2.99,8.89,3.98,3.12,.99,6.11,1.87,8.97,2.65,2.86,.78,5.17,1.61,6.94,2.5,1.77,.88,2.65,2.26,2.65,4.13,0,1.56-.76,2.76-2.26,3.59-1.51,.83-3.56,1.25-6.16,1.25-4.16,0-7.93-.75-11.31-2.26-3.38-1.51-6.37-3.61-8.97-6.32l-13.72,13.72c2.7,2.81,5.87,5.28,9.51,7.41,3.64,2.13,7.64,3.8,12.01,4.99,4.37,1.19,8.78,1.79,13.26,1.79,9.46,0,16.97-2.21,22.54-6.63,5.56-4.42,8.34-10.32,8.34-17.7,0-4.78-.88-8.66-2.65-11.62-1.77-2.96-4.05-5.35-6.86-7.17Z"/><rect class="cls-1" x="294.21" y="125.25" width="71.11" height="24.02"/></g></g></svg>